<svg width="670" height="314" viewBox="0 0 670 314" fill="none" xmlns="http://www.w3.org/2000/svg">
<path d="M334.615 268.748C273.958 268.748 224.794 226.995 224.794 175.467C224.794 123.944 273.958 82.1785 334.615 82.1785C395.243 82.1785 444.421 123.936 444.421 175.467C444.421 226.999 395.243 268.748 334.615 268.748ZM469.386 46.4945C471.15 37.3346 463.129 39.279 460.656 40.0778L459.914 40.331L459.894 40.3352L382.135 66.5448C376.059 68.5961 369.333 67.227 369.333 67.227C369.333 67.227 369.349 67.3035 369.349 67.3111C358.665 64.6766 347.475 63.1579 335.835 63.1579C323.084 63.1579 310.852 65.0012 299.253 68.1438C299.148 68.1624 299.096 68.0944 299.004 68.1231C296.323 68.826 291.698 68.1231 291.698 68.1231L207.194 39.6243C199.175 36.9217 200.026 45.4345 200.026 45.4345L218.416 122.378C218.416 122.378 219.578 131.225 217.424 137.126C217.361 137.282 217.441 137.383 217.395 137.527C212.862 148.982 210.263 161.241 210.263 174.058C210.263 235.306 266.487 284.967 335.839 284.967C405.214 284.967 461.423 235.306 461.423 174.058C461.423 162.129 459.115 150.709 455.154 139.946C455.104 139.769 455.137 139.631 455.075 139.446C453.373 134.487 454.453 123.535 454.453 123.535L469.386 46.4945Z" fill="#F5DF4E"/>
<path d="M79.4531 50.2969C81.4219 42.0469 87.375 37.9219 97.3125 37.9219C100.312 37.9219 103.641 38.5781 107.297 39.8906C111.047 41.1094 112.922 42.3281 112.922 43.5469C112.922 44.1094 112.547 44.5781 111.797 44.9531C106.266 48.2344 99.9844 55.3125 92.9531 66.1875C85.9219 76.9688 79.4062 88.9688 73.4062 102.188C60.5625 129.938 50.6719 153.422 43.7344 172.641L39.0938 185.438C54.5625 185.438 73.5938 185.484 96.1875 185.578L95.9062 143.812C95.9062 132.656 95.0156 124.219 93.2344 118.5C91.4531 112.688 88.125 106.969 83.25 101.344C83.25 98.3438 85.125 96.0938 88.875 94.5938C90.375 94.0312 92.4375 93.75 95.0625 93.75C97.6875 93.75 100.5 94.6406 103.5 96.4219C106.594 98.2031 108.844 100.031 110.25 101.906L112.219 104.578H112.5C116.531 96.5156 121.781 90.7969 128.25 87.4219C130.875 86.0156 133.641 85.3125 136.547 85.3125C139.453 85.3125 141.797 85.9688 143.578 87.2812C145.359 88.5 146.531 90.375 147.094 92.9062C142.219 99.8438 138.891 106.781 137.109 113.719C135.328 120.562 134.438 130.594 134.438 143.812V185.578H134.719C141 185.578 146.062 184.828 149.906 183.328C153.844 181.734 157.594 179.25 161.156 175.875C163.406 175.875 165.094 177.656 166.219 181.219C166.594 182.531 166.781 184.219 166.781 186.281C166.781 188.344 166.125 190.5 164.812 192.75C162.844 196.125 160.828 198.375 158.766 199.5C164.109 204 166.781 208.641 166.781 213.422C166.781 219.141 164.906 222.469 161.156 223.406C152.156 214.969 143.766 210.75 135.984 210.75H134.438C134.719 223.031 135.984 232.688 138.234 239.719C140.484 246.75 144.375 253.453 149.906 259.828C149.906 262.828 147.562 265.078 142.875 266.578C141 267.141 138.469 267.422 135.281 267.422C132.094 267.422 128.719 266.484 125.156 264.609C121.688 262.828 119.156 261.047 117.562 259.266L115.312 256.594C112.406 260.906 107.812 264.094 101.531 266.156C99.0938 267 96.3281 267.422 93.2344 267.422C90.1406 267.422 87.4688 266.766 85.2188 265.453C82.9688 264.234 81.6562 262.969 81.2812 261.656L80.7188 259.828C85.875 253.828 89.5781 247.547 91.8281 240.984C94.1719 234.422 95.5312 225.703 95.9062 214.828C95.25 214.734 93.7031 214.688 91.2656 214.688C88.9219 214.688 84.3281 216.141 77.4844 219.047C70.6406 221.953 65.6719 223.406 62.5781 223.406C53.2031 223.406 46.3125 218.062 41.9062 207.375C40.5938 210.562 38.4844 213.422 35.5781 215.953C30.0469 220.922 24.8438 223.406 19.9688 223.406C11.625 223.406 7.45312 219.75 7.45312 212.438C7.45312 206.062 9.1875 200.203 12.6562 194.859C13.6875 193.172 14.4375 191.906 14.9062 191.062C15.375 190.219 16.3125 188.859 17.7188 186.984C19.2188 185.109 20.2031 183.891 20.6719 183.328C21.1406 182.766 22.2188 181.453 23.9062 179.391C25.6875 177.328 26.7656 176.062 27.1406 175.594L54.8438 107.812C57.6562 101.062 59.0625 93.6094 59.0625 85.4531C59.0625 77.2031 57.75 69.3281 55.125 61.8281C52.5938 54.2344 50.1094 49.1719 47.6719 46.6406C47.7656 46.4531 47.8594 46.1719 47.9531 45.7969C48.1406 45.4219 48.5625 44.7656 49.2188 43.8281C49.875 42.7969 50.625 41.9062 51.4688 41.1562C53.9062 39.2813 56.8594 38.3438 60.3281 38.3438C63.7969 38.3438 66.75 38.7656 69.1875 39.6094C71.625 40.4531 73.4531 41.4375 74.6719 42.5625C77.2031 44.9063 78.7969 47.4844 79.4531 50.2969Z" fill="#F5DF4E"/>
<path d="M574.453 50.2969C576.422 42.0469 582.375 37.9219 592.312 37.9219C595.312 37.9219 598.641 38.5781 602.297 39.8906C606.047 41.1094 607.922 42.3281 607.922 43.5469C607.922 44.1094 607.547 44.5781 606.797 44.9531C601.266 48.2344 594.984 55.3125 587.953 66.1875C580.922 76.9688 574.406 88.9688 568.406 102.188C555.562 129.938 545.672 153.422 538.734 172.641L534.094 185.438C549.562 185.438 568.594 185.484 591.188 185.578L590.906 143.812C590.906 132.656 590.016 124.219 588.234 118.5C586.453 112.688 583.125 106.969 578.25 101.344C578.25 98.3438 580.125 96.0938 583.875 94.5938C585.375 94.0312 587.438 93.75 590.062 93.75C592.688 93.75 595.5 94.6406 598.5 96.4219C601.594 98.2031 603.844 100.031 605.25 101.906L607.219 104.578H607.5C611.531 96.5156 616.781 90.7969 623.25 87.4219C625.875 86.0156 628.641 85.3125 631.547 85.3125C634.453 85.3125 636.797 85.9688 638.578 87.2812C640.359 88.5 641.531 90.375 642.094 92.9062C637.219 99.8438 633.891 106.781 632.109 113.719C630.328 120.562 629.438 130.594 629.438 143.812V185.578H629.719C636 185.578 641.062 184.828 644.906 183.328C648.844 181.734 652.594 179.25 656.156 175.875C658.406 175.875 660.094 177.656 661.219 181.219C661.594 182.531 661.781 184.219 661.781 186.281C661.781 188.344 661.125 190.5 659.812 192.75C657.844 196.125 655.828 198.375 653.766 199.5C659.109 204 661.781 208.641 661.781 213.422C661.781 219.141 659.906 222.469 656.156 223.406C647.156 214.969 638.766 210.75 630.984 210.75H629.438C629.719 223.031 630.984 232.688 633.234 239.719C635.484 246.75 639.375 253.453 644.906 259.828C644.906 262.828 642.562 265.078 637.875 266.578C636 267.141 633.469 267.422 630.281 267.422C627.094 267.422 623.719 266.484 620.156 264.609C616.688 262.828 614.156 261.047 612.562 259.266L610.312 256.594C607.406 260.906 602.812 264.094 596.531 266.156C594.094 267 591.328 267.422 588.234 267.422C585.141 267.422 582.469 266.766 580.219 265.453C577.969 264.234 576.656 262.969 576.281 261.656L575.719 259.828C580.875 253.828 584.578 247.547 586.828 240.984C589.172 234.422 590.531 225.703 590.906 214.828C590.25 214.734 588.703 214.688 586.266 214.688C583.922 214.688 579.328 216.141 572.484 219.047C565.641 221.953 560.672 223.406 557.578 223.406C548.203 223.406 541.312 218.062 536.906 207.375C535.594 210.562 533.484 213.422 530.578 215.953C525.047 220.922 519.844 223.406 514.969 223.406C506.625 223.406 502.453 219.75 502.453 212.438C502.453 206.062 504.188 200.203 507.656 194.859C508.688 193.172 509.438 191.906 509.906 191.062C510.375 190.219 511.312 188.859 512.719 186.984C514.219 185.109 515.203 183.891 515.672 183.328C516.141 182.766 517.219 181.453 518.906 179.391C520.688 177.328 521.766 176.062 522.141 175.594L549.844 107.812C552.656 101.062 554.062 93.6094 554.062 85.4531C554.062 77.2031 552.75 69.3281 550.125 61.8281C547.594 54.2344 545.109 49.1719 542.672 46.6406C542.766 46.4531 542.859 46.1719 542.953 45.7969C543.141 45.4219 543.562 44.7656 544.219 43.8281C544.875 42.7969 545.625 41.9062 546.469 41.1562C548.906 39.2813 551.859 38.3438 555.328 38.3438C558.797 38.3438 561.75 38.7656 564.188 39.6094C566.625 40.4531 568.453 41.4375 569.672 42.5625C572.203 44.9063 573.797 47.4844 574.453 50.2969Z" fill="#F5DF4E"/>
</svg>
