<svg xmlns="http://www.w3.org/2000/svg">
    <symbol id="vk" viewBox="0 0 50 50">
        <path fill="none" stroke-miterlimit="10" stroke-width="2" d="M34.973,29.535c2.237,1.986,2.702,2.695,2.778,2.816C38.678,33.821,36.723,34,36.723,34h-4.12c0,0-1.003,0.011-1.86-0.557c-1.397-0.915-2.86-2.689-3.889-2.381C25.992,31.32,26,32.486,26,33.483C26,33.84,25.693,34,25,34s-0.981,0-1.288,0c-2.257,0-4.706-0.76-7.149-3.313c-3.456-3.609-6.487-10.879-6.487-10.879s-0.179-0.366,0.016-0.589c0.221-0.25,0.822-0.218,0.822-0.218L14.909,19c0,0,0.376,0.071,0.646,0.261c0.223,0.156,0.347,0.454,0.347,0.454s0.671,2.216,1.526,3.629c1.67,2.758,2.447,2.827,3.014,2.531C21.27,25.445,21,22.513,21,22.513s0.037-1.259-0.395-1.82c-0.333-0.434-0.97-0.665-1.248-0.701c-0.225-0.029,0.151-0.423,0.63-0.648C20.627,19.059,21.498,18.986,23,19c1.169,0.011,1.506,0.081,1.962,0.186C26.341,19.504,26,20.343,26,23.289c0,0.944-0.13,2.271,0.582,2.711c0.307,0.19,1.359,0.422,3.231-2.618c0.889-1.441,1.596-3.834,1.596-3.834s0.146-0.263,0.373-0.393c0.232-0.133,0.225-0.13,0.543-0.13c0.318,0,3.507-0.025,4.207-0.025c0.699,0,1.355-0.008,1.468,0.402c0.162,0.589-0.515,2.607-2.234,4.797C32.944,27.793,32.63,27.457,34.973,29.535z"/>
        <path fill="none" stroke-linecap="round" stroke-miterlimit="10" stroke-width="2" d="M25 3A22 22 0 1 0 25 47A22 22 0 1 0 25 3Z"/>   
    </symbol>
    <symbol id="facebook" viewBox="0 0 50 50">
        <path fill="none" stroke-linecap="round" stroke-linejoin="round" stroke-miterlimit="10" stroke-width="2" d="M28.71,16H32v-4c0,0-2.797-1-5.419-1C21.686,11,20,14.001,20,18.226V21h-3v5h3v13h6V26h5l1-5h-6v-3.194C26,16.455,26.772,16,28.71,16z"/>
        <path fill="none" stroke-linecap="round" stroke-miterlimit="10" stroke-width="2" d="M25 3A22 22 0 1 0 25 47A22 22 0 1 0 25 3Z"/>
    </symbol>
    <symbol id="linkedin" viewBox="0 0 50 50">
        <path fill="none" stroke-linecap="round" stroke-miterlimit="10" stroke-width="2" d="M25 3A22 22 0 1 0 25 47A22 22 0 1 0 25 3Z"/>
        <path fill="none" stroke-miterlimit="10" stroke-width="2" d="M16 13A2 2 0 1 0 16 17A2 2 0 1 0 16 13Z"/>
        <path fill="none" stroke-linejoin="round" stroke-miterlimit="10" stroke-width="2" d="M14 20H18V35H14zM30.5 20c-1.748 0-3.332.694-4.5 1.816V20h-4v15h4v-7.5c0-1.925 1.575-3.5 3.5-3.5s3.5 1.575 3.5 3.5V30v5h4v-8.5C37 22.91 34.09 20 30.5 20z"/>
    </symbol>
    <symbol id="phone" viewBox="0 0 24 24">
        <path fill="inherit" d="m5.25 4c0-1.51878 1.23122-2.75 2.75-2.75h8c1.5188 0 2.75 1.23122 2.75 2.75v16c0 1.5188-1.2312 2.75-2.75 2.75h-8c-1.51878 0-2.75-1.2312-2.75-2.75zm2.75-1.25c-.69036 0-1.25.55964-1.25 1.25v16c0 .6904.55964 1.25 1.25 1.25h8c.6904 0 1.25-.5596 1.25-1.25v-16c0-.69036-.5596-1.25-1.25-1.25z"/>
        <path fill="inherit" d="m9 1.25c-.41421 0-.75.33579-.75.75v1c0 .9665.7835 1.75 1.75 1.75h4c.9665 0 1.75-.7835 1.75-1.75v-1c0-.41421-.3358-.75-.75-.75z"/>
    </symbol>
    <symbol id="email" viewBox="0 0 294 294">
        <path d="M293.734,64.448c0-3.233-2.624-5.855-5.855-5.855H5.855C2.625,58.592,0,61.214,0,64.448v164.839
            c0,3.236,2.625,5.855,5.855,5.855h282.023c3.231,0,5.855-2.619,5.855-5.855V64.448z M282.024,223.431H11.711V70.303h270.313
            V223.431z"/>
        <path d="M22.761,99.073l121.496,60.562c0.824,0.406,1.716,0.612,2.61,0.612s1.793-0.206,2.61-0.612
            l121.499-60.562c2.894-1.443,4.071-4.957,2.631-7.851c-1.441-2.894-4.952-4.068-7.857-2.627l-118.883,59.256L27.987,88.595
            c-2.902-1.447-6.41-0.266-7.851,2.627C18.689,94.122,19.867,97.635,22.761,99.073z"/>
        <path d="M86.963,149.943L28.41,199.782c-2.459,2.099-2.759,5.798-0.663,8.257
            c1.161,1.36,2.805,2.064,4.463,2.064c1.341,0,2.693-0.458,3.794-1.401l58.552-49.844c2.458-2.099,2.759-5.792,0.663-8.257
            C93.115,148.148,89.427,147.828,86.963,149.943z"/>
        <path d="M211.658,149.943c-2.471-2.115-6.164-1.795-8.257,0.658c-2.099,2.465-1.807,6.158,0.663,8.257
            l58.553,49.844c1.098,0.943,2.447,1.401,3.791,1.401c1.658,0,3.299-0.704,4.466-2.064c2.093-2.459,1.795-6.158-0.663-8.257
            L211.658,149.943z"/>
    </symbol>
    <symbol id="instagram" viewBox="0 0 512 512">
        <path d="m373.40625 0h-234.8125c-76.421875 0-138.59375 62.171875-138.59375 138.59375v234.816406c0 76.417969 62.171875 138.589844 138.59375 138.589844h234.816406c76.417969 0 138.589844-62.171875 138.589844-138.589844v-234.816406c0-76.421875-62.171875-138.59375-138.59375-138.59375zm108.578125 373.410156c0 59.867188-48.707031 108.574219-108.578125 108.574219h-234.8125c-59.871094 0-108.578125-48.707031-108.578125-108.574219v-234.816406c0-59.871094 48.707031-108.578125 108.578125-108.578125h234.816406c59.867188 0 108.574219 48.707031 108.574219 108.578125zm0 0"/>
        <path d="m256 116.003906c-77.195312 0-139.996094 62.800782-139.996094 139.996094s62.800782 139.996094 139.996094 139.996094 139.996094-62.800782 139.996094-139.996094-62.800782-139.996094-139.996094-139.996094zm0 249.976563c-60.640625 0-109.980469-49.335938-109.980469-109.980469 0-60.640625 49.339844-109.980469 109.980469-109.980469 60.644531 0 109.980469 49.339844 109.980469 109.980469 0 60.644531-49.335938 109.980469-109.980469 109.980469zm0 0"/>
        <path d="m399.34375 66.285156c-22.8125 0-41.367188 18.558594-41.367188 41.367188 0 22.8125 18.554688 41.371094 41.367188 41.371094s41.371094-18.558594 41.371094-41.371094-18.558594-41.367188-41.371094-41.367188zm0 52.71875c-6.257812 0-11.351562-5.09375-11.351562-11.351562 0-6.261719 5.09375-11.351563 11.351562-11.351563 6.261719 0 11.355469 5.089844 11.355469 11.351563 0 6.257812-5.09375 11.351562-11.355469 11.351562zm0 0"/>
    </symbol>
</svg>