<svg xmlns="http://www.w3.org/2000/svg" xmlnsXlink="http://www.w3.org/1999/xlink" viewBox="0 0 512 512" width="50">
    <path fill="#ffffff" d="M256,0C165.019,0,91,74.019,91,165v182c0,90.981,74.019,165,165,165s165-74.019,165-165V165C421,74.019,346.981,0,256,0z
        M271,30.838c65.379,7.261,116.817,61.393,119.851,127.94c-26.497,24.872-58.241,41.032-91.562,48.479
        c1.106-3.9,1.711-8.008,1.711-12.257v-60c0-19.555-12.541-36.228-30-42.42V30.838z M256,120c8.271,0,15,6.729,15,15v60
        c0,8.271-6.729,15-15,15s-15-6.729-15-15v-60C241,126.729,247.729,120,256,120z M241,30.838V92.58
        c-17.459,6.192-30,22.865-30,42.42v60c0,4.249,0.605,8.357,1.711,12.257c-33.321-7.447-65.065-23.607-91.562-48.479
        C124.183,92.231,175.621,38.099,241,30.838z M391,347c0,74.439-60.561,135-135,135s-135-60.561-135-135V197.715
        c38.853,28.834,85.729,44.417,135,44.417s96.147-15.583,135-44.417V347z"/>
</svg>